<svg width="512" height="512" viewBox="0 0 512 512" fill="none" xmlns="http://www.w3.org/2000/svg">
<rect width="512" height="512" rx="24" fill="url(#paint0_linear_1_6)"/>
<g filter="url(#filter0_d_1_6)">
<path d="M242.667 147V119.667C242.667 112.15 248.817 106 256.333 106C263.85 106 270 112.15 270 119.667V147C270 154.517 263.85 160.667 256.333 160.667C248.817 160.667 242.667 154.517 242.667 147ZM343.253 188.683L362.523 169.277C367.853 163.947 367.853 155.337 362.523 150.007C357.193 144.677 348.583 144.677 343.253 150.007L323.983 169.413C318.653 174.743 318.653 183.353 323.983 188.683C329.313 194.013 337.923 194.013 343.253 188.683ZM393 242.667H365.667C358.15 242.667 352 248.817 352 256.333C352 263.85 358.15 270 365.667 270H393C400.517 270 406.667 263.85 406.667 256.333C406.667 248.817 400.517 242.667 393 242.667ZM256.333 352C248.817 352 242.667 358.15 242.667 365.667V393C242.667 400.517 248.817 406.667 256.333 406.667C263.85 406.667 270 400.517 270 393V365.667C270 358.15 263.85 352 256.333 352ZM169.413 188.683L150.007 169.413C144.677 164.083 144.677 155.337 150.007 150.143C155.337 144.95 164.083 144.813 169.277 150.143L188.547 169.413C193.877 174.743 193.877 183.49 188.547 188.683C183.217 193.877 174.607 194.013 169.413 188.683ZM323.983 323.983C318.653 329.313 318.653 338.06 323.983 343.253L343.253 362.523C348.583 367.853 357.33 367.853 362.523 362.523C367.853 357.193 367.853 348.447 362.523 343.253L343.253 323.983C338.06 318.653 329.313 318.653 323.983 323.983ZM119.667 270H147C154.517 270 160.667 263.85 160.667 256.333C160.667 248.817 154.517 242.667 147 242.667H119.667C112.15 242.667 106 248.817 106 256.333C106 263.85 112.15 270 119.667 270ZM169.413 362.66L188.683 343.39C194.013 338.06 194.013 329.313 188.683 324.12C183.353 318.927 174.607 318.79 169.413 324.12L150.143 343.39C144.813 348.72 144.813 357.467 150.143 362.66C155.337 367.99 164.083 367.99 169.413 362.66ZM256.333 174.333C211.097 174.333 174.333 211.097 174.333 256.333C174.333 301.57 211.097 338.333 256.333 338.333C301.57 338.333 338.333 301.57 338.333 256.333C338.333 211.097 301.57 174.333 256.333 174.333Z" fill="white"/>
</g>
<defs>
<filter id="filter0_d_1_6" x="106" y="106" width="330.667" height="330.667" filterUnits="userSpaceOnUse" color-interpolation-filters="sRGB">
<feFlood flood-opacity="0" result="BackgroundImageFix"/>
<feColorMatrix in="SourceAlpha" type="matrix" values="0 0 0 0 0 0 0 0 0 0 0 0 0 0 0 0 0 0 127 0" result="hardAlpha"/>
<feOffset dx="20" dy="20"/>
<feGaussianBlur stdDeviation="5"/>
<feComposite in2="hardAlpha" operator="out"/>
<feColorMatrix type="matrix" values="0 0 0 0 0 0 0 0 0 0 0 0 0 0 0 0 0 0 0.25 0"/>
<feBlend mode="normal" in2="BackgroundImageFix" result="effect1_dropShadow_1_6"/>
<feBlend mode="normal" in="SourceGraphic" in2="effect1_dropShadow_1_6" result="shape"/>
</filter>
<linearGradient id="paint0_linear_1_6" x1="0" y1="0" x2="512" y2="512" gradientUnits="userSpaceOnUse">
<stop stop-color="#F9D976"/>
<stop offset="1" stop-color="#F39F86"/>
</linearGradient>
</defs>
</svg>
